<mxfile host="app.diagrams.net" modified="2021-12-27T12:20:36.855Z" agent="5.0 (Macintosh; Intel Mac OS X 10_15_7) AppleWebKit/605.1.15 (KHTML, like Gecko) Version/15.1 Safari/605.1.15" etag="-dnBe469CUlHrRImv2sn" version="16.1.0" type="github">
  <diagram id="wvtju5dftot9S1PdKEpr" name="Page-1">
    <mxGraphModel dx="1042" dy="619" grid="0" gridSize="10" guides="1" tooltips="1" connect="1" arrows="1" fold="1" page="1" pageScale="1" pageWidth="827" pageHeight="1169" math="0" shadow="0">
      <root>
        <mxCell id="0" />
        <mxCell id="1" parent="0" />
        <mxCell id="l35sxVfZDz5NCpahiKGh-1" value="Linux" style="shape=step;perimeter=stepPerimeter;whiteSpace=wrap;html=1;fixedSize=1;fillColor=#dae8fc;strokeColor=#6c8ebf;" vertex="1" parent="1">
          <mxGeometry x="153" y="208" width="208" height="67" as="geometry" />
        </mxCell>
        <mxCell id="l35sxVfZDz5NCpahiKGh-2" value="SwiftUI" style="shape=step;perimeter=stepPerimeter;whiteSpace=wrap;html=1;fixedSize=1;fillColor=#f8cecc;strokeColor=#b85450;" vertex="1" parent="1">
          <mxGeometry x="153" y="364" width="208" height="67" as="geometry" />
        </mxCell>
        <mxCell id="l35sxVfZDz5NCpahiKGh-3" value="" style="shape=step;perimeter=stepPerimeter;whiteSpace=wrap;html=1;fixedSize=1;fillColor=#ffe6cc;strokeColor=#d79b00;gradientColor=none;" vertex="1" parent="1">
          <mxGeometry x="148" y="52" width="208" height="67" as="geometry" />
        </mxCell>
        <mxCell id="l35sxVfZDz5NCpahiKGh-4" value="Linux" style="shape=step;perimeter=stepPerimeter;whiteSpace=wrap;html=1;fixedSize=1;fillColor=#dae8fc;strokeColor=#6c8ebf;" vertex="1" parent="1">
          <mxGeometry x="400" y="208" width="208" height="67" as="geometry" />
        </mxCell>
      </root>
    </mxGraphModel>
  </diagram>
</mxfile>
